<svg width="69" height="9" viewBox="0 0 69 9" fill="none" xmlns="http://www.w3.org/2000/svg">
<path d="M0.441406 8.87887V0.12113H2.55606L4.85909 6.81359L7.18643 0.12113H9.28894V8.87887H7.78802V2.01077L5.47283 8.87887H4.23928L1.94233 2.05316V8.87887H0.441406Z" fill="black"/>
<path d="M14.9198 9C14.1095 9 13.4087 8.82234 12.8173 8.46703C12.2299 8.11171 11.7741 7.59892 11.45 6.92867C11.13 6.25841 10.97 5.45491 10.97 4.51817C10.97 3.57335 11.132 2.7638 11.4561 2.0895C11.7802 1.41521 12.238 0.898385 12.8294 0.539031C13.4249 0.179677 14.1217 0 14.9198 0C15.7178 0 16.4085 0.179677 16.9919 0.539031C17.5793 0.898385 18.033 1.41521 18.353 2.0895C18.6731 2.7638 18.8331 3.57335 18.8331 4.51817C18.8331 5.45491 18.6751 6.25841 18.3591 6.92867C18.0431 7.59489 17.5914 8.10767 17.004 8.46703C16.4166 8.82234 15.7219 9 14.9198 9ZM14.9198 7.76447C15.3978 7.76447 15.809 7.65343 16.1533 7.43136C16.4977 7.20525 16.761 6.85599 16.9433 6.38358C17.1296 5.90713 17.2228 5.29139 17.2228 4.53634C17.2228 3.76918 17.1296 3.14334 16.9433 2.65882C16.7569 2.17026 16.4916 1.8109 16.1472 1.58075C15.8029 1.35061 15.3937 1.23553 14.9198 1.23553C14.4417 1.23553 14.0285 1.35262 13.6801 1.58681C13.3358 1.81696 13.0684 2.17631 12.878 2.66487C12.6876 3.14939 12.5924 3.77322 12.5924 4.53634C12.5924 5.29139 12.6876 5.90713 12.878 6.38358C13.0684 6.85599 13.3358 7.20525 13.6801 7.43136C14.0285 7.65343 14.4417 7.76447 14.9198 7.76447Z" fill="black"/>
<path d="M20.5108 0.12113C20.5473 0.12113 20.6546 0.12113 20.8329 0.12113C21.0111 0.12113 21.2218 0.12113 21.4648 0.12113C21.7119 0.12113 21.9611 0.123149 22.2122 0.127187C22.4675 0.127187 22.6882 0.129206 22.8746 0.133243C23.9441 0.153432 24.813 0.337147 25.4815 0.684388C26.1539 1.02759 26.6461 1.51817 26.9581 2.15612C27.2741 2.79004 27.432 3.55518 27.432 4.45155C27.432 5.38829 27.2639 6.18573 26.9277 6.84388C26.5955 7.50202 26.0851 8.00673 25.3964 8.35801C24.7118 8.70525 23.8408 8.87887 22.7835 8.87887H20.5108V0.12113ZM22.0117 1.33849V7.66151H22.8078C23.4114 7.66151 23.9441 7.55855 24.4059 7.35262C24.8677 7.14266 25.2283 6.8035 25.4875 6.33513C25.7509 5.86676 25.8825 5.24092 25.8825 4.4576C25.8825 3.69852 25.761 3.09085 25.5179 2.63459C25.2749 2.17833 24.9265 1.84926 24.4727 1.64738C24.019 1.44145 23.4762 1.33849 22.8442 1.33849H22.0117Z" fill="black"/>
<path d="M35.8725 5.68102C35.8725 6.37551 35.7591 6.97106 35.5323 7.4677C35.3054 7.9603 34.9428 8.33984 34.4445 8.60633C33.9503 8.86878 33.2981 9 32.4879 9C31.6777 9 31.0234 8.86676 30.5251 8.60027C30.0309 8.32974 29.6724 7.94213 29.4496 7.43742C29.2268 6.92867 29.1154 6.31494 29.1154 5.59623V0.12113H30.6284V5.74764C30.6284 6.42598 30.7945 6.92665 31.1267 7.24966C31.463 7.57268 31.9167 7.73419 32.4879 7.73419C32.8727 7.73419 33.2069 7.66353 33.4905 7.52221C33.7741 7.38089 33.9928 7.16487 34.1468 6.87416C34.3007 6.57941 34.3777 6.2039 34.3777 5.74764V0.12113H35.8725V5.68102Z" fill="black"/>
<path d="M37.7972 0.12113H39.2921V7.607H43.2601V8.87887H37.7911L37.7972 0.12113Z" fill="black"/>
<path d="M44.3332 8.87887L47.493 0.12113H49.0911L52.2449 8.87887H50.7622L49.9783 6.68035H46.624L45.8219 8.87887H44.3332ZM46.9643 5.37214H49.6137L48.2951 1.55653L46.9643 5.37214Z" fill="black"/>
<path d="M60.2934 8.87887H58.7499L57.2368 5.32369H55.1951V8.87887H53.7185V0.12113H57.2854C57.9579 0.12113 58.5109 0.22611 58.9443 0.43607C59.3819 0.641992 59.7059 0.934724 59.9166 1.31427C60.1273 1.68977 60.2326 2.12988 60.2326 2.63459C60.2326 3.10296 60.1556 3.49664 60.0017 3.81561C59.8477 4.13055 59.6472 4.38896 59.4001 4.59085C59.157 4.78869 58.8957 4.9502 58.6162 5.07537L60.2934 8.87887ZM56.9512 4.15478C57.5103 4.15478 57.9458 4.02557 58.2577 3.76716C58.5737 3.50875 58.7317 3.14939 58.7317 2.6891C58.7317 2.23688 58.5858 1.88762 58.2942 1.64132C58.0025 1.39502 57.6176 1.27187 57.1396 1.27187H55.1951V4.15478H56.9512Z" fill="black"/>
<path d="M65.0081 9C64.5828 9 64.1675 8.94751 63.7624 8.84253C63.3573 8.73351 62.9887 8.57402 62.6565 8.36407C62.3284 8.15007 62.0549 7.8856 61.8361 7.57066C61.6174 7.25168 61.4837 6.88022 61.4351 6.45626H62.9664C63.0312 6.75101 63.1588 6.99933 63.3492 7.20121C63.5396 7.4031 63.7766 7.55653 64.0602 7.66151C64.3478 7.76649 64.6618 7.81898 65.0021 7.81898C65.3667 7.81898 65.6948 7.77053 65.9865 7.67362C66.2822 7.57672 66.5151 7.4354 66.6853 7.24966C66.8595 7.06393 66.9466 6.8358 66.9466 6.56528C66.9466 6.32705 66.8838 6.12517 66.7582 5.95962C66.6326 5.79408 66.4564 5.65882 66.2295 5.55384C66.0067 5.44482 65.7454 5.35801 65.4456 5.29341L63.8293 4.94213C63.177 4.80888 62.6605 4.55047 62.2797 4.16689C61.8989 3.78331 61.7045 3.27254 61.6964 2.63459C61.6923 2.10565 61.8321 1.64536 62.1157 1.2537C62.4033 0.858008 62.7942 0.553163 63.2885 0.339166C63.7827 0.12113 64.3417 0.0121129 64.9656 0.0121129C65.6948 0.0121129 66.3085 0.131225 66.8068 0.369448C67.3091 0.603634 67.6879 0.918573 67.9431 1.31427C68.2024 1.70996 68.3341 2.14401 68.3381 2.61642H66.8433C66.8068 2.26918 66.7015 1.9926 66.5273 1.78668C66.3571 1.58075 66.1384 1.43338 65.871 1.34455C65.6036 1.25572 65.3079 1.21131 64.9838 1.21131C64.7408 1.21131 64.5139 1.23957 64.3032 1.2961C64.0926 1.35262 63.9083 1.4354 63.7503 1.54441C63.5923 1.65343 63.4687 1.78668 63.3796 1.94415C63.2945 2.09758 63.252 2.27322 63.252 2.47106C63.252 2.7537 63.3452 2.98385 63.5315 3.16151C63.7219 3.33513 64.0764 3.4825 64.5949 3.60363L66.1748 3.95491C66.665 4.05182 67.06 4.19717 67.3598 4.39098C67.6596 4.58479 67.8884 4.80686 68.0464 5.0572C68.2044 5.3035 68.3097 5.55585 68.3624 5.81427C68.4151 6.07268 68.4414 6.31898 68.4414 6.55316C68.4414 7.00942 68.2996 7.42328 68.016 7.79475C67.7365 8.16622 67.3395 8.46097 66.825 8.679C66.3146 8.893 65.709 9 65.0081 9Z" fill="black"/>
</svg>
